# Blender 5.0.1
# www.blender.org
mtllib christmas_latern.mtl
o Cube
v -0.489914 -0.939166 0.489914
v -1.000000 1.000000 1.000000
v -0.489914 -0.939166 -0.489914
v -1.000000 1.000000 -1.000000
v 0.489914 -0.939166 0.489914
v 1.000000 1.000000 1.000000
v 0.489914 -0.939166 -0.489914
v 1.000000 1.000000 -1.000000
v -1.106569 0.365841 1.106569
v -1.106569 0.365841 -1.106569
v 1.106569 0.365841 -1.106569
v 1.106569 0.365841 1.106569
v -0.686938 -0.643838 -0.686938
v 0.686938 -0.643838 -0.686938
v 0.686938 -0.643838 0.686938
v -0.489914 -0.822309 0.489914
v 1.000000 0.742268 1.000000
v -1.000000 0.742268 1.000000
v 1.000000 0.742268 -1.000000
v -1.000000 0.742268 -1.000000
v -0.686938 -0.643838 0.686938
v -0.489914 -0.822309 -0.489914
v 0.489914 -0.822309 -0.489914
v 0.489914 -0.822309 0.489914
v 1.106569 0.365841 -1.106569
v 0.686938 -0.643838 -0.686938
v 1.106569 0.365841 1.106569
v 0.686938 -0.643838 0.686938
v -0.634767 -0.612168 0.605762
v -1.004811 0.278197 0.975805
v -1.004811 0.278197 -0.975805
v -0.634767 -0.612168 -0.605762
v -0.948824 0.291227 -1.030056
v -0.581203 -0.593308 -0.662435
v 0.990009 0.291227 -1.030056
v 0.622388 -0.593308 -0.662435
v 1.025774 0.306119 -0.975663
v 0.655785 -0.584116 -0.605673
v 1.025774 0.306119 0.975663
v 0.655785 -0.584116 0.605673
v -0.609462 -0.572907 0.633637
v -0.981767 0.322897 1.005941
v 0.981767 0.322897 1.005941
v 0.609462 -0.572907 0.633637
v 0.769242 0.670849 0.956322
v -0.769242 0.670849 0.956322
v 0.851219 0.381286 1.038299
v -0.851219 0.381286 1.038299
v -0.763681 0.697790 -0.942625
v 0.763681 0.697790 -0.942625
v -0.845066 0.410319 -1.024010
v 0.845066 0.410319 -1.024010
v 0.905021 0.630078 -0.812844
v 0.905021 0.630078 0.812844
v 0.991645 0.324102 -0.899468
v 0.991645 0.324102 0.899468
v -0.967719 0.672330 0.784937
v -0.967719 0.672330 -0.828894
v -1.053711 0.368585 0.870929
v -1.053711 0.368585 -0.914887
v -0.170974 1.533207 0.170974
v -0.170974 1.533207 -0.170974
v 0.170974 1.533207 -0.170974
v 0.170974 1.533207 0.170974
v -0.170974 1.584162 0.170974
v -0.170974 1.584162 -0.170974
v 0.170974 1.584162 -0.170974
v 0.170974 1.584162 0.170974
v -0.034972 1.584162 0.034972
v -0.034972 1.584162 -0.034972
v 0.034972 1.584162 -0.034972
v 0.034972 1.584162 0.034972
v -0.034972 1.658427 0.034972
v -0.034972 1.658427 -0.034972
v 0.034972 1.658427 -0.034972
v 0.034972 1.658427 0.034972
v -0.104594 1.760540 0.034972
v -0.104594 1.760540 -0.034972
v -0.034651 1.760540 -0.034972
v -0.034651 1.760540 0.034972
v 0.005170 1.920828 0.034972
v 0.005170 1.920828 -0.034972
v 0.004113 1.850893 -0.034972
v 0.004113 1.850893 0.034972
v 0.128974 1.769303 0.034972
v 0.128974 1.769303 -0.034972
v 0.059047 1.767814 -0.034972
v 0.059047 1.767814 0.034972
vn -1.0000 -0.0000 -0.0000
vn -0.0000 -0.0000 -1.0000
vn 1.0000 -0.0000 -0.0000
vn -0.0000 -0.0000 1.0000
vn -0.0000 -1.0000 -0.0000
vn -0.0000 0.8411 -0.5409
vn 0.6104 -0.0741 0.7886
vn -0.0000 1.0000 -0.0000
vn -0.4628 -0.1693 -0.8701
vn -0.8176 -0.1045 -0.5662
vn -0.2417 0.2004 0.9494
vn 0.7632 -0.6461 -0.0000
vn -0.0000 0.8804 -0.4743
vn -0.9545 0.2103 -0.2117
vn -0.6714 -0.7411 -0.0000
vn -0.0000 -0.7411 -0.6714
vn 0.6714 -0.7411 -0.0000
vn -0.0000 -0.7411 0.6714
vn 0.8866 0.4625 -0.0000
vn -0.9234 -0.3838 -0.0000
vn -0.5189 0.8548 -0.0000
vn -0.8176 -0.1045 0.5662
vn -0.6526 -0.7577 -0.0000
vn -0.0000 -0.3838 -0.9234
vn -0.0000 -0.7159 -0.6982
vn -0.0000 0.4363 -0.8998
vn 0.3278 -0.2432 -0.9129
vn 0.9234 -0.3838 -0.0000
vn 0.8714 -0.1711 -0.4598
vn 0.5944 -0.8042 -0.0000
vn 0.8714 -0.1711 0.4598
vn -0.0000 -0.3838 0.9234
vn -0.0000 -0.9197 0.3925
vn -0.0000 0.6007 0.7994
vn -0.6104 -0.0741 0.7886
vn -0.0000 0.2724 0.9622
vn -0.0000 -0.5217 0.8531
vn 0.2417 0.2004 0.9494
vn -0.0000 0.9754 0.2207
vn -0.0000 0.2724 -0.9622
vn 0.2656 0.1923 -0.9447
vn -0.0000 -0.7903 -0.6127
vn -0.2656 0.1923 -0.9447
vn 0.9622 0.2724 -0.0000
vn 0.8609 0.1026 -0.4984
vn -0.3414 0.9399 -0.0000
vn 0.8609 0.1026 0.4984
vn -0.9622 0.2724 -0.0000
vn -0.9079 -0.4191 -0.0000
vn -0.9463 0.1948 0.2581
vn -0.0518 0.9987 -0.0000
vn 0.5409 0.8411 -0.0000
vn -0.5409 0.8411 -0.0000
vn -0.0000 0.8411 0.5409
vn 0.8262 0.5633 -0.0000
vn -0.8262 -0.5633 -0.0000
vn -0.8341 -0.5515 -0.0000
vn 0.9190 -0.3943 -0.0000
vn -0.8251 0.5650 -0.0000
vn 0.0213 -0.9998 -0.0000
vn 0.7744 0.6327 -0.0000
vt 0.639876 0.011397
vt 0.644126 0.011397
vt 0.644126 0.044376
vt 0.639876 0.044376
vt 0.644126 0.077355
vt 0.639876 0.077355
vt 0.644126 0.110333
vt 0.639876 0.110333
vt 0.644126 0.143312
vt 0.639876 0.143312
vt 0.281487 0.081323
vt 0.309003 0.081323
vt 0.309003 0.108839
vt 0.281487 0.108839
vt 0.216185 0.129805
vt 0.203282 0.128375
vt 0.561052 0.756127
vt 0.436547 0.757680
vt 0.216185 0.077989
vt 0.203282 0.078150
vt 0.309003 0.026291
vt 0.312284 0.026291
vt 0.312284 0.053807
vt 0.309003 0.053807
vt 0.312284 0.081323
vt 0.312284 0.108839
vt 0.312284 0.136355
vt 0.309003 0.136355
vt 0.433535 0.049692
vt 0.430600 0.050259
vt 0.430600 0.073386
vt 0.433535 0.072819
vt 0.433535 0.095946
vt 0.433535 0.120207
vt 0.430600 0.119640
vt 0.315777 0.027136
vt 0.315777 0.054652
vt 0.315777 0.082168
vt 0.315777 0.109684
vt 0.315777 0.135510
vt 0.203282 0.104058
vt 0.561052 0.506127
vt 0.436547 0.507680
vt 0.505117 0.439822
vt 0.520335 0.438135
vt 0.520335 0.470191
vt 0.505117 0.470381
vt 0.203282 0.052242
vt 0.203282 0.026334
vt 0.216185 0.052081
vt 0.216185 0.024904
vt 0.520335 0.500749
vt 0.505117 0.500939
vt 0.520335 0.531307
vt 0.505117 0.531497
vt 0.216185 0.103897
vt 0.202970 0.033085
vt 0.202970 0.030688
vt 0.520335 0.561865
vt 0.505117 0.560178
vt 0.524214 0.530558
vt 0.524214 0.561116
vt 0.430600 0.027132
vt 0.433535 0.026565
vt 0.524214 0.469442
vt 0.524214 0.500000
vt 0.430600 0.096513
vt 0.524214 0.438884
vt 0.677104 0.077355
vt 0.677104 0.110333
s 0
usemtl Material
f 18/1/1 2/2/1 4/3/1 20/4/1
f 20/4/2 4/3/2 8/5/2 19/6/2
f 19/6/3 8/5/3 6/7/3 17/8/3
f 17/8/4 6/7/4 2/9/4 18/10/4
f 3/11/5 7/12/5 5/13/5 1/14/5
f 8/5/6 4/3/6 62/3/6 63/5/6
f 9/15/7 21/16/7 41/16/7 42/15/7
f 12/17/8 15/18/8 28/18/8 27/17/8
f 11/19/9 14/20/9 36/20/9 35/19/9
f 21/16/10 9/15/10 30/15/10 29/16/10
f 1/21/1 16/22/1 22/23/1 3/24/1
f 3/24/2 22/23/2 23/25/2 7/12/2
f 7/12/3 23/25/3 24/26/3 5/13/3
f 5/13/4 24/26/4 16/27/4 1/28/4
f 12/29/11 17/30/11 45/30/11 47/29/11
f 19/31/12 17/30/12 54/30/12 53/31/12
f 11/32/13 10/33/13 51/33/13 52/32/13
f 9/34/14 18/35/14 57/35/14 59/34/14
f 21/36/15 13/37/15 22/23/15 16/22/15
f 13/37/16 14/38/16 23/25/16 22/23/16
f 14/38/17 15/39/17 24/26/17 23/25/17
f 15/39/18 21/40/18 16/27/18 24/26/18
f 28/41/19 26/20/19 38/20/19 40/41/19
f 11/42/8 12/17/8 27/17/8 25/42/8
f 15/18/8 14/43/8 26/43/8 28/18/8
f 14/43/8 11/42/8 25/42/8 26/43/8
f 29/44/20 30/45/20 31/46/20 32/47/20
f 13/48/21 21/49/21 29/49/21 32/48/21
f 10/50/22 13/48/22 32/48/22 31/50/22
f 9/51/23 10/50/23 31/50/23 30/51/23
f 34/47/24 33/46/24 35/52/24 36/53/24
f 10/50/25 11/19/25 35/19/25 33/50/25
f 14/20/26 13/48/26 34/48/26 36/20/26
f 13/48/27 10/50/27 33/50/27 34/48/27
f 38/53/28 37/52/28 39/54/28 40/55/28
f 27/56/29 28/41/29 40/41/29 39/56/29
f 25/57/30 27/58/30 39/58/30 37/57/30
f 26/20/31 25/19/31 37/19/31 38/20/31
f 44/55/32 43/54/32 42/59/32 41/60/32
f 12/56/33 9/15/33 42/15/33 43/56/33
f 21/16/34 15/41/34 44/41/34 41/16/34
f 15/41/35 12/56/35 43/56/35 44/41/35
f 48/59/36 47/54/36 45/61/36 46/62/36
f 17/30/37 18/63/37 46/63/37 45/30/37
f 18/35/38 9/34/38 48/34/38 46/35/38
f 9/64/39 12/29/39 47/29/39 48/64/39
f 52/52/40 51/46/40 49/65/40 50/66/40
f 10/33/41 20/67/41 49/67/41 51/33/41
f 20/67/42 19/31/42 50/31/42 49/67/42
f 19/31/43 11/32/43 52/32/43 50/31/43
f 56/54/44 55/52/44 53/66/44 54/61/44
f 17/30/45 12/29/45 56/29/45 54/30/45
f 12/29/46 11/32/46 55/32/46 56/29/46
f 11/32/47 19/31/47 53/31/47 55/32/47
f 60/46/48 59/45/48 57/68/48 58/65/48
f 18/35/49 20/67/49 58/67/49 57/35/49
f 20/67/50 10/33/50 60/33/50 58/67/50
f 10/33/51 9/34/51 59/34/51 60/33/51
f 63/5/2 62/3/2 66/3/2 67/5/2
f 6/7/52 8/5/52 63/5/52 64/7/52
f 4/3/53 2/2/53 61/2/53 62/3/53
f 2/9/54 6/7/54 64/7/54 61/9/54
f 68/7/8 67/5/8 71/5/8 72/7/8
f 64/7/3 63/5/3 67/5/3 68/7/3
f 62/3/1 61/2/1 65/2/1 66/3/1
f 61/9/4 64/7/4 68/7/4 65/9/4
f 72/7/3 71/5/3 75/5/3 76/7/3
f 66/3/8 65/2/8 69/2/8 70/3/8
f 65/9/8 68/7/8 72/7/8 69/9/8
f 67/5/8 66/3/8 70/3/8 71/5/8
f 76/7/55 75/5/55 79/5/55 80/7/55
f 70/3/1 69/2/1 73/2/1 74/3/1
f 69/9/4 72/7/4 76/7/4 73/9/4
f 71/5/2 70/3/2 74/3/2 75/5/2
f 77/9/4 80/7/4 84/7/4 81/9/4
f 74/3/56 73/2/56 77/2/56 78/3/56
f 73/9/4 76/7/4 80/7/4 77/9/4
f 75/5/2 74/3/2 78/3/2 79/5/2
f 84/7/57 83/5/57 87/5/57 88/7/57
f 79/5/2 78/3/2 82/3/2 83/5/2
f 80/7/58 79/5/58 83/5/58 84/7/58
f 78/3/59 77/2/59 81/2/59 82/3/59
f 87/5/60 86/69/60 85/70/60 88/7/60
f 82/3/61 81/2/61 85/2/61 86/3/61
f 81/9/4 84/7/4 88/7/4 85/9/4
f 83/5/2 82/3/2 86/3/2 87/5/2
